<svg width="42" height="42" viewBox="0 0 42 42" fill="none" xmlns="http://www.w3.org/2000/svg">
<g id="Group 360185">
<path id="Vector" d="M33.6137 6.60746L12.0762 0.360557C8.87485 -0.568239 5.2703 0.322041 2.78545 2.74675C0.300611 5.17361 -0.575876 8.66194 0.375112 11.7886L6.76909 32.8256C7.61051 35.597 9.82803 37.675 12.6985 38.3877C13.4063 38.5632 14.1272 38.6466 14.8503 38.6466C17.3023 38.6488 19.7521 37.6643 21.5861 35.8731L25.0811 32.4597C25.4317 32.1172 25.4317 31.5608 25.0811 31.2184L21.7636 27.9783C21.413 27.6359 20.8433 27.6359 20.4927 27.9783L16.9977 31.3917C16.2176 32.1536 15.2075 32.4704 14.2915 32.2435C13.8314 32.1301 13.231 31.8262 12.9878 31.0237L6.59379 9.98665C6.18623 8.64054 7.14379 7.5705 7.44837 7.27303C7.75075 6.9777 8.84855 6.04034 10.2268 6.44054L31.7665 12.6853C32.5882 12.925 32.8994 13.5092 33.0177 13.9586C33.25 14.8532 32.9235 15.8419 32.1456 16.6016L28.6506 20.0151C28.3 20.3575 28.3 20.9139 28.6506 21.2563L31.9681 24.4964C32.3187 24.8388 32.8884 24.8388 33.239 24.4964L36.734 21.083C39.1093 18.7631 40.0953 15.4353 39.3087 12.4007C38.5812 9.59501 36.4513 7.42925 33.6137 6.60746Z" fill="white"/>
<path id="Vector_2" d="M36.1846 41.0149C39.3899 41.0149 41.9883 38.4774 41.9883 35.3473C41.9883 32.2172 39.3899 29.6797 36.1846 29.6797C32.9793 29.6797 30.3809 32.2172 30.3809 35.3473C30.3809 38.4774 32.9793 41.0149 36.1846 41.0149Z" fill="#1CBF7E"/>
</g>
</svg>
